<?xml version="1.0" encoding="utf-8"?>
<!-- Generator: Adobe Illustrator 19.2.1, SVG Export Plug-In . SVG Version: 6.00 Build 0)  -->
<svg version="1.1" id="Layer_1" xmlns="http://www.w3.org/2000/svg" xmlns:xlink="http://www.w3.org/1999/xlink" x="0px" y="0px"
	 viewBox="0 0 62.4 32.5" style="enable-background:new 0 0 62.4 32.5;" xml:space="preserve">
<style type="text/css">
	.st0{fill-rule:evenodd;clip-rule:evenodd;fill:#F25A29;}
</style>
<g>
	<path class="st0" d="M28.5,10.2c-0.2,0-0.4,0.1-0.6,0.1c-0.2,0-0.4,0.1-0.6,0.1c-0.2,0-0.4-0.2-0.5-0.3c-0.4-0.4-0.2-1.4,0-1.9
		c0.8-0.2,1.7-0.1,1.9,0.6c0.1,0.2,0.1,0.3,0.1,0.5c0,0.1-0.1,0.3-0.2,0.4C28.6,10,28.6,10.1,28.5,10.2z"/>
	<path class="st0" d="M21.9,8.2c0.8,0,1.6,0.1,2,0.5C23.9,8.8,24,8.9,24,8.9c0.2,0.5-0.2,1.1-0.4,1.4c-0.3,0.1-0.6,0.2-0.9,0.1
		c-0.3,0-0.6-0.2-0.7-0.4C21.7,9.6,21.9,8.9,21.9,8.2C21.9,8.2,21.9,8.2,21.9,8.2z"/>
	<path class="st0" d="M17.9,11.3c-0.5,0-0.9,0-1.4,0c0.3-0.8,0.5-1.7,1.1-2.1C17.8,9.8,17.8,10.6,17.9,11.3z"/>
	<path class="st0" d="M30.8,9.7c0,0.2,0,0.4,0,0.6c-0.2,0-0.3,0-0.5,0C30.2,9.9,30.5,9.7,30.8,9.7z"/>
	<path class="st0" d="M37.6,9.7c0,0.5-0.1,0.8-0.6,0.8c0-0.3,0.1-0.5,0.2-0.7C37.3,9.8,37.5,9.7,37.6,9.7z"/>
	<path class="st0" d="M14.2,12.9c0,0.2,0,0.4,0.1,0.5c-0.1,0-0.3,0.1-0.4,0.1c-0.2-0.1-0.2-0.5,0-0.6C13.9,13,14,12.9,14.2,12.9z"/>
	<path class="st0" d="M26.4,18c0-0.6,0-1.2,0-1.8c0.6-0.3,1.4-0.1,1.8,0.3c0.3,0.2,0.5,0.6,0.6,1c0,0.4-0.1,0.7-0.4,0.8
		c-0.1,0-0.2,0.1-0.3,0.1c-0.1,0-0.3-0.1-0.4-0.1C27.2,18.2,26.8,18.1,26.4,18z"/>
	<path class="st0" d="M41,16.1c0.5,0,1,0.1,1.3,0.3c0.3,0.2,0.5,0.7,0.7,1.1c0.1,0.2,0.2,0.5,0.2,0.7c0,0.3,0.1,0.5,0.1,0.8
		c0.1,1,0.3,2.4-0.2,3.1c-0.3,0-0.6,0.1-0.9,0.1c-0.1,0-0.2,0-0.3,0c-0.1,0-0.2-0.1-0.3-0.1c-0.1,0-0.2-0.1-0.3-0.1
		C40.7,20.4,40.6,17.9,41,16.1z"/>
	<path class="st0" d="M32.9,18.2c-0.2,0-0.4,0.1-0.6,0c-0.1,0-0.3-0.1-0.4-0.1c-0.4-0.1-0.7-0.2-1.1-0.3c0-0.6,0-1.1,0-1.7
		c1-0.3,2.3,0,2.4,1C33.3,17.6,33.1,17.9,32.9,18.2z"/>
	<path class="st0" d="M12.7,17.1c0,0.2,0,0.5,0,0.7c-0.1,0-0.2,0-0.2,0c-0.1-0.2-0.3-0.5-0.1-0.7C12.5,17.1,12.6,17.1,12.7,17.1z"/>
	<path class="st0" d="M22.6,17.3C22.6,17.3,22.6,17.3,22.6,17.3c0.3,0.8,0.5,1.6,0.8,2.4c-0.4,0-0.8,0-1.2,0
		C22.1,18.7,22.3,17.9,22.6,17.3z"/>
	<path class="st0" d="M35,17.9c0,0.2,0,0.4-0.1,0.5c-0.1,0-0.2,0-0.4,0c-0.1-0.2-0.2-0.7,0.1-0.8C34.8,17.7,34.9,17.8,35,17.9z"/>
	<path class="st0" d="M18.4,21.2c0.1,0,0.3,0.1,0.4,0.1c0,0.2,0,0.4,0.1,0.6c-0.1,0-0.2,0-0.3,0C18.4,21.8,18.4,21.5,18.4,21.2z"/>
	<path class="st0" d="M8.1,21.9c0.1,0,0.2,0.1,0.3,0.2c0,0.2,0,0.4,0.1,0.6c-0.1,0-0.2,0-0.3,0C8,22.5,8,22.2,8.1,21.9z"/>
	<path class="st0" d="M37.4,22.5c0,0.2,0,0.4,0,0.6c-0.1,0-0.2,0-0.2,0c-0.1-0.1-0.2-0.3-0.2-0.5c0-0.1,0.1-0.2,0.2-0.2
		C37.3,22.3,37.3,22.4,37.4,22.5z"/>
	<path class="st0" d="M55,29.7c0,0,0,0.1,0,0.1c0,0,0.1,0,0.2,0c0,0.1,0,0.2,0.1,0.2c-0.1,0-0.2,0-0.3-0.1c0-0.2,0-0.3,0-0.4
		c-0.5-0.4-1.1-0.8-1.8-1c-0.2-0.1-0.5-0.2-0.8-0.2c-0.3,0-0.6,0.1-0.7,0.3c-0.2,0-0.3,0-0.4,0.1c0.1,0.1,0,0.3,0,0.4
		c0.2,0.2,0.4,0.3,0.6,0.4c0,0,0-0.1,0.1-0.1c0.2,0.1,0.4,0.1,0.6,0.2c0,0,0-0.1,0-0.1c0.5,0,0.9,0,1.1,0.3c0.6,0,1,0.4,1.5,0.5
		c-0.1,0-0.2,0.1-0.3,0.1c-0.1,0-0.2,0-0.2,0.1c0.4,0,0.6-0.2,0.9-0.3c0,0.2,0,0.2-0.2,0.3c-0.7,0.4-1.7,0.1-2.4-0.2
		c-0.2-0.1-0.5-0.2-0.7-0.3c-0.4-0.2-0.7-0.3-1-0.5c-0.1-0.1-0.3-0.2-0.3-0.2c-0.1-0.1-0.1-0.3-0.1-0.5c0-0.1,0.1-0.3,0.2-0.3
		c0.3-0.3,1-0.4,1.5-0.5c0,0,0,0,0,0c0.6,0,1.2,0.1,1.6,0.4c0.3,0.2,0.6,0.4,0.8,0.6C54.8,29.5,54.9,29.6,55,29.7z"/>
	<path class="st0" d="M56.9,30.5c0-0.1,0-0.1,0-0.2c0.5,0,1,0.3,1.6,0.3c0.3,0,0.5-0.1,0.6-0.3c-0.1-0.1-0.3-0.2-0.4-0.3
		c0-0.1,0.1-0.1,0.1-0.1c-0.5-0.1-1-0.2-1.5-0.3c0.6-0.2,1.7,0,1.9,0.4c0,0.1,0,0.2,0,0.3c-0.1,0.3-0.4,0.4-0.5,0.6
		c-0.4,0-0.7,0-1.1,0C57.3,30.8,57.1,30.6,56.9,30.5z"/>
	<path class="st0" d="M57.7,13.9c0.5,0.3,0.8,0.7,1.2,1c0,0,0,0.1,0,0.1c0.2,0.1,0.3,0.2,0.5,0.4c0.2,0.1,0.3,0.3,0.4,0.4
		c0.3,0.3,0.5,0.6,0.7,0.9c0.2,0.3,0.4,0.8,0.3,1.3c0,0.2-0.1,0.5-0.2,0.6c-0.1,0.2-0.2,0.4-0.3,0.5c-0.1,0.2-0.4,0.3-0.7,0.3
		c-0.3,0-0.6,0-0.8-0.1c-0.5-0.2-0.8-0.5-1.2-0.7c-0.5,3.3-0.8,6.8-2.2,9.1c0.1-0.4,0.2-0.6,0.2-1c-0.3,0.1-0.7,0.4-1.2,0.4
		c-0.2,0-0.2-0.1-0.4-0.1c-0.3-0.1-0.6-0.2-1-0.2c-0.5,0-0.9,0.1-1.4,0.2c-0.8,0.3-1.4,0.7-2.1,1.1c-2.7,0-5.5,0-8.2,0
		c-0.9,0-1.8,0-2.7,0c-1.8,0-3.6-0.1-5.4-0.1c-0.2,0-0.4,0-0.6,0c-1.2-0.3-2.6-0.6-3.9-0.9c-0.1,0,0-0.1,0-0.1
		c-0.7-0.1-1.4-0.3-2.1-0.5c-0.3-0.1-0.5,0-0.8,0c-1,0.1-1.9,0.4-2.8,0.6c-0.9,0.2-1.9,0.5-3,0.4c-0.3,0-0.5-0.1-0.8-0.1
		c-0.3,0-0.6,0-0.9,0c-1.1,0-2.3,0-3.4,0c-0.6,0-1.1,0-1.7,0c-1.1,0-2.3,0-3.4,0.1c-0.6,0-1.1,0-1.7,0c-0.3,0-0.6,0-0.9,0
		c-0.2,0-0.4-0.1-0.6-0.2c-0.7-0.3-1.1-0.8-1.7-1.4c-0.1-0.1-0.2-0.1-0.2-0.2c0,0,0-0.1,0-0.2c-1-0.9-1.6-2.3-2.3-3.6
		c-0.1-0.1-0.1-0.2-0.2-0.3c0-0.1,0.1,0,0.1-0.1c-0.3-0.8-0.4-1.6-0.7-2.5c0-0.2-0.1-0.3-0.1-0.6c-0.1-1.9-0.3-4-0.2-6
		c0.1-2.4,0.5-4.5,1.3-6.2c0.3-0.6,0.5-1.1,0.9-1.6c0.7-1,1.4-1.9,2.6-2.4c0.3-0.1,0.6-0.2,0.9-0.3C7.4,2,7.6,2,7.8,2
		c2.7,0,5.4,0,8.1,0c0.4,0,0.7,0.1,1.1,0.2c1,0.2,1.9,0.4,2.9,0.5c0.1,0,0.2,0,0.3,0c0.1,0,0,0.1,0.1,0.1c1.5,0.2,3,0.4,4.5,0.7
		c0.3,0,0.5,0,0.8,0c0.3,0,0.6,0,0.8,0c1.1,0,2.3,0,3.4,0c1.1,0,2.3,0,3.4,0c0.6,0,1.2,0,1.7,0c0.2,0,0.4-0.1,0.7-0.2
		c1.1-0.4,2.1-0.8,3.2-1.1c0.4-0.1,0.9-0.2,1.4-0.3c0.5-0.1,1-0.2,1.5-0.2c1-0.1,2.1-0.2,3.2-0.2c1.4-0.1,2.8,0,4,0.2
		c0.4,0.1,0.8,0.1,1.2,0.2C50.5,2,50.7,2.2,51,2.4c0.5,0.3,0.9,0.5,1.5,0.7c0.3,0.1,0.6,0.2,0.9,0.2c0.1,0,0.2-0.1,0.4-0.2
		c0.3-0.2,0.7-0.5,1.1-0.5c0.5-0.1,0.9,0.2,1.2,0.5c0.1,0.1,0.2,0.2,0.3,0.3c0.1,0.2,0.2,0.5,0.3,0.7c0,0.1,0.1,0.2,0.1,0.3
		c0,0.1-0.1,0-0.1,0.1c0,0.1,0.1,0.2,0.1,0.3c0.2,0.5,0.3,1,0.4,1.6c0,0.2,0.1,0.5,0.1,0.7c0,0.1-0.1,0.1-0.1,0.1
		c0,0,0.1,0.3,0.1,0.4C57.5,9.4,57.6,11.6,57.7,13.9z M53.6,6.6c-0.3-0.1-0.5-0.2-0.9-0.3c-0.1,0.4-0.1,0.7-0.2,1.1
		c0.3,0,0.6-0.1,0.8-0.2c0,0.3,0,0.6-0.1,0.8c0,0-0.2-0.2-0.2-0.1c0,0,0,0.1-0.1,0.1c-0.1-0.1-0.1-0.1-0.2-0.2
		c-0.1,0.1-0.2,0.3-0.3,0.3c0-0.1,0-0.2,0-0.2c-0.1,0,0,0.2,0,0.2c0,0.6-0.1,1.1-0.2,1.6c-0.3,1.7-0.3,3.8-0.3,5.7
		c0-0.2,0-0.5,0.1-0.7c0,0,0.1,0,0.1,0.1c0-0.1,0.1-0.1,0.2-0.2c0-0.1-0.1-0.1-0.2-0.2c0.1-0.1,0.3-0.1,0.4-0.1c0-0.1,0-0.2,0.1-0.2
		c0.1,2,0,4,0.3,5.7c0,0.2,0.1,0.5,0.2,0.7c0-0.5-0.1-0.9-0.1-1.4c0-0.3,0-0.6,0-0.9c0-0.3,0-0.6,0-0.9c0-1.8-0.1-3.6,0.2-5.2
		c0.1,0,0.2,0.1,0.3,0.1c0,0,0,0.1,0,0.1c0.4,0.2,0.8,0.4,1.3,0.5c0,0.1-0.1,0.2-0.1,0.4c0-0.1,0.1-0.2,0.1-0.2c0.2,0,0.4,0,0.6,0
		c0.4,0.3,0.7,0.6,1,1c0.2,0.3,0.4,0.7,0.4,1.1c0,0.1,0.1,0.3,0,0.5c0,0.2-0.3,0.4-0.2,0.6c0,0.1,0.1,0.2,0.2,0.3
		c0.1-0.2,0.2-0.4,0.3-0.5c0.1-0.2,0.2-0.4,0.4-0.5c0.2,0.5,0.1,1.3,0.1,1.9c0.2,0.1,0.3,0.1,0.5,0.2c0,0,0,0.1,0,0.1
		c0.3,0.2,0.6,0.4,0.9,0.5c0.1,0.1,0.2,0.2,0.3,0.2c0.3,0.1,0.6,0,0.7-0.2C60,18.2,60,18.1,60,18c0-0.3-0.2-0.6-0.4-0.9
		c-0.2-0.3-0.4-0.5-0.6-0.7c0,0,0.1-0.1,0.1-0.1c-0.4-0.4-0.9-0.8-1.6-0.9c0.1-0.2,0.2-0.2,0.4-0.2c0.4,0,0.7,0.2,0.9,0.4
		c0.5,0.5,0.9,1.1,1.3,1.7c0.1,0.1,0.2,0.3,0.2,0.4c0,0.2,0,0.3,0,0.5c0,0.2-0.1,0.3-0.1,0.4c0.1,0,0.3,0.1,0.4,0.1
		c0-0.2,0-0.4,0.1-0.6c0-0.2,0-0.4,0-0.6c0-0.1-0.1-0.2-0.1-0.3c-1.1-2.1-3-3.3-5-4.4c-0.7-0.4-1.5-0.7-2.3-0.9
		c-0.1-0.2,0-0.5,0-0.8c0.4-2.7,1-5.2,1.6-7.8c0,0,0,0,0,0C54.2,4.2,53.9,5.4,53.6,6.6z M55.5,12.6c0.1,0,0.2,0.1,0.3,0
		c0-1,0-2.1-0.1-3c0,0,0.1,0,0.1,0c-0.2-1.2-0.4-2.4-0.6-3.6C55.3,8.2,55.5,10.3,55.5,12.6z M56.8,6.9c-0.1,0-0.1-0.1-0.2,0
		c0,0.2-0.1,0.4-0.1,0.6c-0.2-0.1-0.5,0-0.7,0c0,0.3,0.1,0.6,0.1,0.8c-0.2,0-0.1,0.2-0.1,0.3c0.1,1.4,0.2,2.8,0.3,4.3
		c0.3,0.2,0.6,0.3,0.9,0.4c0.1,0,0.2,0.1,0.3,0.1c0-1.3,0-2.6,0-3.8c0-0.6-0.1-1.2-0.2-1.7c-0.1-0.6-0.2-1.1-0.2-1.7c0,0,0,0,0,0
		C56.7,6.3,56.8,6.6,56.8,6.9z M30.9,7.4c-0.1,0.1-0.1,0.2-0.2,0.4c-0.7,1.8-1.4,3.9-1.4,6.3c0.2,0,0.4,0,0.7,0
		c0.5-2.6,1.5-4.8,2.3-7.1C31.6,6.9,31.1,7,30.9,7.4z M37.5,9.5c-0.3-0.6-0.5-1.6-1-2c-0.1-0.1-0.3-0.2-0.4-0.2
		c-0.3-0.1-0.5,0.1-0.7,0.1c0.3,1,0.6,2,0.8,3c0,0.1,0.1,0.3,0.1,0.4c0,0.3,0,0.5-0.1,0.8c-0.1,0.5-0.3,1-0.1,1.5
		c0,0.1,0.1,0.2,0.1,0.3c0,0.1,0.1,0.2,0.2,0.3c0.1,0,0.3-0.1,0.4,0c0.1-0.6,0.2-1.1,0.4-1.5c0-0.2,0.1-0.3,0.2-0.5c0,0,0,0,0,0
		c1.1-1.7,2.3-3.1,3.6-4.6c0,0,0,0,0,0C39.1,7.1,38.5,8.6,37.5,9.5z M26,7.2c-0.3,2.3-0.7,4.5-0.7,7.1c0.3,0,0.6,0.1,1,0.1
		c0-1,0.1-1.8,0.2-2.7c0.5,0,0.9,0,1.4,0c0.2,0,0.3,0,0.5,0c0.1,0,0.3-0.2,0.4-0.3c0.4-0.3,0.7-0.7,0.9-1.1c0.3-0.6,0.4-1.4,0.3-2.2
		c-0.3,0.1-0.5,0.2-0.8,0.2c0-0.3,0.2-0.5,0.3-0.7c0-0.1,0.1-0.1,0.1-0.2C28.6,7.1,27.3,7.2,26,7.2z M21.2,7.2
		c-0.2,2.3-0.4,4.7-0.4,7.2c0.3,0,0.6,0,0.8,0c0.1-0.9,0.2-1.8,0.3-2.7c0.7,0,1.4,0,2.1,0c0.4-0.3,0.7-0.9,0.9-1.5
		c0.2-0.5,0.4-1.3,0.2-1.9c-0.2,0-0.5,0.1-0.7,0.1c0-0.4,0.1-0.6,0.3-0.7C23.8,7.2,22.5,7.2,21.2,7.2C21.2,7.2,21.2,7.2,21.2,7.2z
		 M10.3,8.2C9.6,9.7,9.6,12,9.7,14c1.3-0.1,1.1-1.7,1.1-3.1c0.9,0,1.8,0,2.6,0c0,1,0,2,0,3c0.4,0,0.8,0,1.1,0
		c0.1-2.3,0.3-4.6,0.6-6.7c-0.4,0-0.8,0-1.2,0c-0.1,0.7-0.2,1.5-0.3,2.3C13,9.9,12,9.8,11.1,9.7c0.1-0.9,0.2-1.7,0.3-2.5
		C10.9,7.3,10.5,7.7,10.3,8.2z M55.3,12.2c0-0.4,0-0.9-0.1-1.2c0,0,0.1,0,0.1,0c-0.1-0.4-0.2-0.8-0.2-1.3c0,0,0.1,0,0.1-0.1
		c-0.1-0.8-0.4-1.5-0.6-2.2C54.8,9,55,10.7,55.3,12.2z M16.5,9.2c-0.1,0.2-0.3,0.5-0.4,0.7c-0.1,0.3-0.3,0.5-0.4,0.7
		c0,0.1-0.1,0.3-0.1,0.4c-0.3,0.9-0.8,1.7-0.9,2.8c0.8-0.1,1-0.9,1.4-1.3c0.1-0.1,0.3-0.4,0.5-0.4c0.2,0,0.4,0,0.7,0
		c0.2,0,0.4,0,0.7,0c0.2,0.4,0.2,0.9,0.6,1.2c0.3,0.2,0.8,0.1,1.2,0.2c0-0.2,0-0.4-0.1-0.5c-0.2,0.1-0.4,0.2-0.7,0.2
		c0-0.3,0-0.4,0.1-0.6c0.1,0,0.3-0.1,0.4-0.1c-0.3-1.7-0.8-3.2-1.1-4.9c-0.4,0-0.8,0-1.2,0C17,8.2,16.8,8.7,16.5,9.2z M32.6,7.7
		c-0.1,0.5-0.2,0.9-0.3,1.4c0.2,0,0.4,0,0.6,0.1c0,0.1,0,0.2,0,0.3c-0.2,0.1-0.5,0.1-0.7,0.2c-0.2,1.2-0.5,2.3-0.6,3.6
		c0.7,0,1.3,0.1,2,0.2c0.7,0.1,1.3,0.1,2,0c0-0.3,0.1-0.5,0.1-0.8c-1,0-2.1,0-3.1,0c0.3-1.7,0.7-3.4,1-5.1
		C33.2,7.7,32.9,7.7,32.6,7.7C32.6,7.7,32.6,7.7,32.6,7.7z M47.4,11.4c0,0,0,0.2-0.1,0.3c0,0.1,0,0.2-0.1,0.3
		c-0.1,0.5-0.4,1.4-0.1,1.9c-0.1,0-0.1,0-0.2,0c-0.1,0.2-0.1,0.5,0,0.8c0.1,0.7,0.3,1.3,0.4,2c0,0.1,0.1,0.4,0.1,0.4c0,0,0,0,0.1,0
		c-0.1-2.4,0.2-4.6,0.4-6.8c0.1-0.7,0.3-1.4,0.2-2.2c-0.3,1.2-0.7,2.2-1,3.3C47.2,11.3,47.4,11.3,47.4,11.4z M53.2,12.5
		c0.1,0.4,0.4,0.7,0.8,0.9c0.1,0.1,0.3,0.2,0.5,0.2C54.3,13,53.8,12.7,53.2,12.5C53.2,12.5,53.2,12.5,53.2,12.5z M55.2,15.4
		c0,0.1,0.1,0.1,0.2,0.1c0-0.4,0-0.8-0.2-1C55.1,14.8,55,15.1,55.2,15.4z M34.7,14.6c-0.8,1.2-0.6,3.7-0.4,5.4c0,0.1,0.1,0.3,0,0.4
		c0,0.1-0.1,0-0.1,0.1c0.2,0.8,0.4,1.6,0.6,2.4c0.1,0,0.2,0,0.3,0c0-2.8,0.2-5.6,0.3-8.3C35.3,14.6,35,14.6,34.7,14.6z M33.7,17.3
		c0-0.6-0.2-1.3-0.4-1.7c-0.1-0.1-0.2-0.4-0.3-0.4c-0.1-0.1-0.3-0.1-0.4-0.2c-0.8-0.3-1.9-0.2-2.8-0.2c0.1,0.4,0.4,0.6,0.4,1.1
		c-0.2,0.1-0.3,0.1-0.5,0.2c0,2-0.1,4.2,0.5,5.7c0,0-0.1,0-0.1,0c0.1,0.2,0.2,0.3,0.4,0.5c0.1,0.2,0.4,0.4,0.7,0.4
		c-0.1-0.9-0.3-1.9-0.1-2.9c0.2,0,0.3-0.1,0.5-0.1c0.6,0,0.9,0.4,1.1,0.8c0.3,0.4,0.5,0.8,0.7,1.2c0,0-0.1,0.1-0.1,0.1
		c0,0,0.1,0.1,0.1,0.2c0.1,0.2,0.2,0.4,0.3,0.5c0.2,0,0.4,0,0.7,0.1c-0.3-1.2-0.9-2.1-1.4-3.1C33.4,18.9,33.7,18.2,33.7,17.3z
		 M25.3,14.8c0,0.2,0,0.4,0,0.6c0.1,0.1,0.2,0.2,0.3,0.3c0,0.2,0,0.4,0,0.6c-0.2,0-0.3,0-0.5,0c0.1,1.8,0.2,3.6,0.5,5.2
		c0.1,0.5,0.2,1.1,0.5,1.4c0.2,0,0.4,0,0.6,0c-0.1-1-0.2-2-0.3-3c1.6-0.3,1.8,1.1,2.5,1.9c0,0-0.1,0.1-0.1,0.1
		c0.2,0.3,0.3,0.5,0.5,0.8c0.2,0,0.4,0,0.7,0c-0.2-0.9-0.8-1.4-1.2-2.1c0.1,0,0.1-0.1,0.2-0.1c-0.1-0.3-0.4-0.6-0.4-1
		c0-0.3,0.2-0.5,0.3-0.8c0.1-0.1,0.1-0.2,0.2-0.3c0.1-0.1,0.2-0.3,0.2-0.4c0-0.1,0-0.3,0-0.4c0-1-0.3-1.8-0.9-2.2
		C27.7,14.8,26.5,14.8,25.3,14.8C25.3,14.8,25.3,14.8,25.3,14.8z M43.3,23.2c0,0.1,0.1,0.3,0.1,0.3c0.1,0.1,0.2-0.1,0.3-0.2
		c0.2-0.3,0.4-0.6,0.5-0.9c0.5-1.3,0.1-3-0.2-4.3c-0.1-0.3-0.1-0.6-0.2-0.8c0-0.1-0.1-0.3-0.2-0.4c-0.2-0.4-0.4-0.9-0.6-1.2
		c-0.2-0.4-0.5-0.6-1.1-0.6c-0.7,0-1.4,0.1-2.1,0c0,2.8,0,5.6,0.4,8.1c0.3,0.1,0.7,0.1,1,0.2c0.5,0.1,0.9,0.3,1.6,0.2
		c0-0.4,0-0.7,0.4-0.7C43.2,23,43.2,23.1,43.3,23.2z M14.6,15.2c0,1.1,0.2,2.2,0.3,3.2c0,0.1,0.1,0.3,0.1,0.4c0,0.6-0.1,1.3,0,1.9
		c-0.2-0.1-0.3-0.3-0.4-0.5c-0.5-1.2-1.2-2.3-1.8-3.5c-0.1-0.2-0.2-0.4-0.3-0.5c0-0.1-0.1-0.1-0.2-0.2c-0.1-0.1-0.1-0.2-0.2-0.2
		c-0.2-0.1-0.5,0-0.6,0.1c-0.6,0.5-0.5,1.9-0.4,2.9c0.1,0.7,0.2,1.4,0.3,2c0.2,0.9,0.3,1.9,0.6,2.8c0.3,0,0.6,0,0.8,0
		c-0.3-1.6-0.6-3.2-0.6-5.1c0.6,1.1,1.2,2.1,1.9,3.2c0,0-0.1,0.1-0.1,0.1c0.3,0.4,0.6,0.8,0.9,1.3c0,0.1-0.1,0.1-0.1,0.1
		c0.1,0.1,0.1,0.2,0.2,0.2c0,0.1,0.1,0.2,0.2,0.2c0.1,0,0.3,0,0.4,0c0.1,0,0.2,0,0.4,0c0-0.2-0.1-0.3-0.1-0.5c0,0,0.1,0,0.1-0.1
		c0-0.1,0-0.3-0.1-0.5c-0.3-2.4-0.5-4.9-0.5-7.5C15.1,15.2,14.8,15.2,14.6,15.2C14.5,15.2,14.6,15.2,14.6,15.2z M53.9,16.9
		c0-0.2,0-0.5,0-0.7c-0.3-0.2-0.5-0.6-0.7-0.9C53.3,16,53.6,16.4,53.9,16.9z M22.1,15.5c-0.5,2.2-1.2,4.5-1,7.3
		c0.4-0.4,0.6-1.1,0.8-1.6c0.1-0.3,0.3-0.5,0.6-0.6c0.3-0.1,0.7,0,1,0.1c0.4,0.7,0.7,1.6,1.9,1.6c-0.1-0.1-0.2-0.3-0.3-0.5
		c-0.1,0-0.1,0.1-0.2,0.1c-0.1,0-0.3,0-0.4,0c0-0.2,0-0.4,0.1-0.6c0.1,0,0.2,0,0.3-0.1c-0.4-1.2-0.8-2.3-1.3-3.5c0,0,0.1,0,0.1-0.1
		c-0.3-0.7-0.6-1.4-0.7-2.2C22.8,15.5,22.4,15.5,22.1,15.5C22.1,15.5,22.1,15.5,22.1,15.5z M36.4,15.5c-0.2,1.2-0.4,2.5-0.5,3.8
		c0,0.3-0.1,0.7-0.1,1c0,1,0.2,2.1,0,3.1c0.6,0,1.3-0.1,1.9-0.2c0.6-0.1,1.1-0.3,1.4-0.8c0.1-0.2,0.2-0.5,0.1-0.7
		c-0.9,0-1.7,0-2.5,0c0-0.8-0.2-1.8,0.3-2.2c0.2-0.2,0.6-0.4,1-0.4c0,0,0-0.1,0-0.1c0.5-0.2,1-0.3,1.1-0.8c-0.8,0-1.6,0-2.4,0
		c0-0.5,0-1,0-1.5c0.8-0.1,1.7-0.1,2.4-0.3c0,0,0-0.1,0-0.1c0.3-0.1,0.4-0.4,0.4-0.8C38.5,15.5,37.5,15.5,36.4,15.5
		C36.4,15.5,36.4,15.5,36.4,15.5z M9.8,19.1c0.1,0.6,0.1,1.4,0.1,2.1c0,0.2-0.1,0.5-0.2,0.6c-0.1,0.1-0.4,0.1-0.5,0.1
		c-0.6,0-1-0.3-1.2-0.6c-0.6-1-0.6-2.5-0.6-4.1c0-0.2,0-0.6,0-0.8c0-0.1,0-0.1-0.1-0.1c-0.2,0-0.6,0-0.8,0.1c0,0.5,0,1,0,1.4
		c0,0.5,0,1,0,1.5c0,0.4,0.1,0.9,0.2,1.3c0.2,1.2,0.7,1.9,1.6,2.4c0.1,0,0.2,0.1,0.3,0.1c1.2,0,2.2-0.2,2.4-1.1c0.1-0.3,0-0.7,0-1.1
		c-0.1-1.4-0.2-2.9-0.5-4.3c-0.3-0.1-0.7-0.1-1-0.1C9.6,17.4,9.7,18.2,9.8,19.1z M18.6,17.7c-0.2,0.8-0.2,1.8-0.4,2.6
		c-0.4-1.3-0.7-2.7-1.2-3.8c-0.4,0-0.9,0-1.3-0.1c0.1,2.3,0.4,4.4,0.7,6.4c0.2,0,0.5,0,0.7,0c-0.2-1.6-0.4-3.2-0.6-4.9
		c0.2,0.2,0.2,0.6,0.3,0.9c0.4,1.4,0.9,2.7,1.3,4.1c0.2,0,0.4,0,0.7,0c0.1-1.6,0.1-3.3,0.5-4.7c0.2,1.6,0.5,3.2,0.7,4.8
		c0.2,0,0.5,0,0.7,0c-0.1-1-0.2-2.1-0.3-3.2c-0.1-1.1,0-2.4-0.2-3.4c0,0,0,0,0,0C19.3,16.4,18.9,16.9,18.6,17.7z M57.4,18.1
		C57.4,18,57.4,18,57.4,18.1c-0.1-0.3-0.3-0.5-0.6-0.6C56.9,17.8,57.2,17.9,57.4,18.1z M59.1,19.2c0.1,0,0.3,0.2,0.3,0.2
		c0.1,0,0.2,0,0.2-0.1c0.1,0,0.2,0,0.2-0.1c-0.7-0.1-1.2-0.4-1.8-0.6C58.4,18.8,58.8,19,59.1,19.2z M54.9,19.8c0.1,0,0.1,0,0.2-0.1
		c0-0.2,0-0.4,0-0.5C55,19.4,54.9,19.7,54.9,19.8z M55.3,20c-0.2,0.9-0.5,1.9-0.6,2.9c0,0.1-0.1,0.3-0.1,0.5c0,0.2,0.2,0.3,0.3,0.4
		c0.2-0.8,0.4-1.7,0.5-2.6c0-0.1,0-0.3,0-0.4c0,0,0.1-0.1,0.1-0.2c0.1-0.1,0.2-0.4,0.1-0.6C55.5,20,55.4,20,55.3,20
		C55.3,20,55.3,20,55.3,20z M56.5,20.1c-0.1,0-0.3,0.1-0.5,0.1c-0.2,1.1-0.4,2.3-0.7,3.4c0.3,0.1,0.7,0.1,1.1,0.1
		c0.2-1.1,0.4-2.3,0.6-3.4c-0.2,0-0.3,0-0.5,0C56.6,20.1,56.5,20.1,56.5,20.1z M53.5,22.6c0.1,0.6,0.2,1.2,0.4,1.7c0,0,0,0.1,0,0.1
		c-0.2-1.3-0.4-2.6-0.7-3.8C53.2,21.2,53.3,21.9,53.5,22.6z"/>
</g>
</svg>
